<svg xmlns="http://www.w3.org/2000/svg" xmlns:xlink="http://www.w3.org/1999/xlink" width="300" zoomAndPan="magnify" viewBox="0 0 224.87999 74.999997" height="100" preserveAspectRatio="xMidYMid meet" version="1.0"><defs><g/></defs><g fill="#000000" fill-opacity="1"><g transform="translate(39.24564, 47.529962)"><g><path d="M 8.109375 -15.984375 C 8.753906 -16.804688 9.59375 -17.421875 10.625 -17.828125 C 11.664062 -18.242188 12.859375 -18.453125 14.203125 -18.453125 L 14.203125 -12.734375 C 13.617188 -12.796875 13.140625 -12.828125 12.765625 -12.828125 C 11.398438 -12.828125 10.332031 -12.457031 9.5625 -11.71875 C 8.789062 -10.988281 8.40625 -9.863281 8.40625 -8.34375 L 8.40625 0 L 2.046875 0 L 2.046875 -18.15625 L 8.109375 -18.15625 Z M 8.109375 -15.984375 "/></g></g></g><g fill="#000000" fill-opacity="1"><g transform="translate(53.180509, 47.529962)"><g><path d="M 11.15625 0.296875 C 9.207031 0.296875 7.453125 -0.101562 5.890625 -0.90625 C 4.328125 -1.707031 3.101562 -2.820312 2.21875 -4.25 C 1.34375 -5.6875 0.90625 -7.304688 0.90625 -9.109375 C 0.90625 -10.898438 1.34375 -12.507812 2.21875 -13.9375 C 3.101562 -15.363281 4.320312 -16.472656 5.875 -17.265625 C 7.425781 -18.054688 9.1875 -18.453125 11.15625 -18.453125 C 13.125 -18.453125 14.890625 -18.054688 16.453125 -17.265625 C 18.015625 -16.472656 19.226562 -15.367188 20.09375 -13.953125 C 20.96875 -12.535156 21.40625 -10.921875 21.40625 -9.109375 C 21.40625 -7.304688 20.96875 -5.6875 20.09375 -4.25 C 19.226562 -2.820312 18.015625 -1.707031 16.453125 -0.90625 C 14.890625 -0.101562 13.125 0.296875 11.15625 0.296875 Z M 11.15625 -4.75 C 12.269531 -4.75 13.179688 -5.132812 13.890625 -5.90625 C 14.609375 -6.675781 14.96875 -7.742188 14.96875 -9.109375 C 14.96875 -10.453125 14.609375 -11.503906 13.890625 -12.265625 C 13.179688 -13.023438 12.269531 -13.40625 11.15625 -13.40625 C 10.039062 -13.40625 9.125 -13.023438 8.40625 -12.265625 C 7.695312 -11.503906 7.34375 -10.453125 7.34375 -9.109375 C 7.34375 -7.742188 7.695312 -6.675781 8.40625 -5.90625 C 9.125 -5.132812 10.039062 -4.75 11.15625 -4.75 Z M 11.15625 -4.75 "/></g></g></g><g fill="#000000" fill-opacity="1"><g transform="translate(74.585327, 47.529962)"><g><path d="M 11.328125 0.296875 C 9.316406 0.296875 7.515625 -0.101562 5.921875 -0.90625 C 4.335938 -1.707031 3.101562 -2.820312 2.21875 -4.25 C 1.34375 -5.6875 0.90625 -7.304688 0.90625 -9.109375 C 0.90625 -10.921875 1.34375 -12.535156 2.21875 -13.953125 C 3.101562 -15.367188 4.335938 -16.472656 5.921875 -17.265625 C 7.515625 -18.054688 9.316406 -18.453125 11.328125 -18.453125 C 13.378906 -18.453125 15.148438 -18.007812 16.640625 -17.125 C 18.140625 -16.25 19.203125 -15.03125 19.828125 -13.46875 L 14.90625 -10.953125 C 14.082031 -12.585938 12.878906 -13.40625 11.296875 -13.40625 C 10.148438 -13.40625 9.203125 -13.023438 8.453125 -12.265625 C 7.710938 -11.503906 7.34375 -10.453125 7.34375 -9.109375 C 7.34375 -7.742188 7.710938 -6.675781 8.453125 -5.90625 C 9.203125 -5.132812 10.148438 -4.75 11.296875 -4.75 C 12.878906 -4.75 14.082031 -5.566406 14.90625 -7.203125 L 19.828125 -4.6875 C 19.203125 -3.125 18.140625 -1.898438 16.640625 -1.015625 C 15.148438 -0.140625 13.378906 0.296875 11.328125 0.296875 Z M 11.328125 0.296875 "/></g></g></g><g fill="#000000" fill-opacity="1"><g transform="translate(93.879804, 47.529962)"><g><path d="M 10.28125 -6.359375 L 8.40625 -4.453125 L 8.40625 0 L 2.046875 0 L 2.046875 -24.859375 L 8.40625 -24.859375 L 8.40625 -11.828125 L 14.90625 -18.15625 L 22.4375 -18.15625 L 14.90625 -10.390625 L 23.078125 0 L 15.375 0 Z M 10.28125 -6.359375 "/></g></g></g><g fill="#000000" fill-opacity="1"><g transform="translate(115.954571, 47.529962)"><g><path d="M 20.609375 -9.046875 C 20.609375 -9.003906 20.570312 -8.476562 20.5 -7.46875 L 7.296875 -7.46875 C 7.566406 -6.53125 8.085938 -5.8125 8.859375 -5.3125 C 9.628906 -4.8125 10.597656 -4.5625 11.765625 -4.5625 C 12.628906 -4.5625 13.378906 -4.679688 14.015625 -4.921875 C 14.648438 -5.171875 15.296875 -5.570312 15.953125 -6.125 L 19.296875 -2.640625 C 17.535156 -0.679688 14.957031 0.296875 11.5625 0.296875 C 9.4375 0.296875 7.566406 -0.101562 5.953125 -0.90625 C 4.347656 -1.707031 3.101562 -2.820312 2.21875 -4.25 C 1.34375 -5.6875 0.90625 -7.304688 0.90625 -9.109375 C 0.90625 -10.898438 1.332031 -12.503906 2.1875 -13.921875 C 3.050781 -15.335938 4.242188 -16.445312 5.765625 -17.25 C 7.285156 -18.050781 8.992188 -18.453125 10.890625 -18.453125 C 12.691406 -18.453125 14.328125 -18.078125 15.796875 -17.328125 C 17.273438 -16.585938 18.445312 -15.503906 19.3125 -14.078125 C 20.175781 -12.660156 20.609375 -10.984375 20.609375 -9.046875 Z M 10.921875 -13.9375 C 9.941406 -13.9375 9.117188 -13.65625 8.453125 -13.09375 C 7.796875 -12.539062 7.378906 -11.785156 7.203125 -10.828125 L 14.640625 -10.828125 C 14.460938 -11.785156 14.039062 -12.539062 13.375 -13.09375 C 12.71875 -13.65625 11.898438 -13.9375 10.921875 -13.9375 Z M 10.921875 -13.9375 "/></g></g></g><g fill="#000000" fill-opacity="1"><g transform="translate(136.555452, 47.529962)"><g><path d="M 14.578125 -0.734375 C 14.035156 -0.398438 13.378906 -0.144531 12.609375 0.03125 C 11.835938 0.207031 11.019531 0.296875 10.15625 0.296875 C 7.78125 0.296875 5.957031 -0.28125 4.6875 -1.4375 C 3.414062 -2.601562 2.78125 -4.335938 2.78125 -6.640625 L 2.78125 -12.734375 L 0.140625 -12.734375 L 0.140625 -17.484375 L 2.78125 -17.484375 L 2.78125 -22.203125 L 9.140625 -22.203125 L 9.140625 -17.484375 L 13.296875 -17.484375 L 13.296875 -12.734375 L 9.140625 -12.734375 L 9.140625 -6.703125 C 9.140625 -6.054688 9.3125 -5.546875 9.65625 -5.171875 C 10.007812 -4.804688 10.476562 -4.625 11.0625 -4.625 C 11.789062 -4.625 12.4375 -4.8125 13 -5.1875 Z M 14.578125 -0.734375 "/></g></g></g><g fill="#000000" fill-opacity="1"><g transform="translate(150.624312, 47.529962)"><g><path d="M 25.6875 -18.453125 C 27.925781 -18.453125 29.707031 -17.78125 31.03125 -16.4375 C 32.363281 -15.101562 33.03125 -13.085938 33.03125 -10.390625 L 33.03125 0 L 26.671875 0 L 26.671875 -9.34375 C 26.671875 -10.613281 26.425781 -11.550781 25.9375 -12.15625 C 25.457031 -12.757812 24.785156 -13.0625 23.921875 -13.0625 C 22.960938 -13.0625 22.191406 -12.726562 21.609375 -12.0625 C 21.023438 -11.394531 20.734375 -10.378906 20.734375 -9.015625 L 20.734375 0 L 14.375 0 L 14.375 -9.34375 C 14.375 -11.820312 13.457031 -13.0625 11.625 -13.0625 C 10.644531 -13.0625 9.863281 -12.726562 9.28125 -12.0625 C 8.695312 -11.394531 8.40625 -10.378906 8.40625 -9.015625 L 8.40625 0 L 2.046875 0 L 2.046875 -18.15625 L 8.109375 -18.15625 L 8.109375 -16.25 C 8.773438 -16.988281 9.570312 -17.539062 10.5 -17.90625 C 11.425781 -18.269531 12.4375 -18.453125 13.53125 -18.453125 C 14.800781 -18.453125 15.9375 -18.21875 16.9375 -17.75 C 17.945312 -17.28125 18.765625 -16.566406 19.390625 -15.609375 C 20.109375 -16.523438 21.015625 -17.226562 22.109375 -17.71875 C 23.203125 -18.207031 24.394531 -18.453125 25.6875 -18.453125 Z M 25.6875 -18.453125 "/></g></g></g><g fill="#000000" fill-opacity="1"><g transform="translate(75.383081, 57.100615)"><g><path d="M 0.382812 0 L 2.324219 0 C 3.71875 0 4.394531 -0.984375 4.394531 -2.308594 C 4.394531 -3.820312 3.507812 -4.570312 2.324219 -4.570312 L 0.382812 -4.570312 Z M 1.355469 -0.84375 L 1.355469 -3.722656 L 2.074219 -3.722656 C 3.066406 -3.722656 3.390625 -3.136719 3.390625 -2.214844 C 3.390625 -1.203125 2.835938 -0.84375 2.253906 -0.84375 Z M 1.355469 -0.84375 "/></g></g></g><g fill="#000000" fill-opacity="1"><g transform="translate(81.229151, 57.100615)"><g><path d="M 0.382812 0 L 1.355469 0 L 1.355469 -4.570312 L 0.382812 -4.570312 Z M 0.382812 0 "/></g></g></g><g fill="#000000" fill-opacity="1"><g transform="translate(84.037801, 57.100615)"><g><path d="M 2.746094 0.078125 C 4.164062 0.078125 5.082031 -0.964844 5.082031 -2.4375 L 2.746094 -2.445312 L 2.746094 -1.601562 L 3.953125 -1.601562 C 3.769531 -1.164062 3.257812 -0.910156 2.746094 -0.910156 C 1.976562 -0.910156 1.363281 -1.515625 1.363281 -2.289062 C 1.363281 -3.058594 1.976562 -3.671875 2.746094 -3.671875 C 3.257812 -3.671875 3.691406 -3.410156 3.929688 -3 C 4.378906 -3.226562 4.410156 -3.246094 4.8125 -3.449219 C 4.402344 -4.160156 3.628906 -4.652344 2.746094 -4.652344 C 1.445312 -4.652344 0.382812 -3.589844 0.382812 -2.289062 C 0.382812 -0.984375 1.445312 0.078125 2.746094 0.078125 Z M 2.746094 0.078125 "/></g></g></g><g fill="#000000" fill-opacity="1"><g transform="translate(90.568088, 57.100615)"><g><path d="M 0.382812 0 L 1.355469 0 L 1.355469 -4.570312 L 0.382812 -4.570312 Z M 0.382812 0 "/></g></g></g><g fill="#000000" fill-opacity="1"><g transform="translate(93.376738, 57.100615)"><g><path d="M 1.695312 0 L 2.667969 0 L 2.667969 -3.671875 L 3.972656 -3.671875 L 3.972656 -4.570312 L 0.382812 -4.570312 L 0.382812 -3.671875 L 1.695312 -3.671875 Z M 1.695312 0 "/></g></g></g><g fill="#000000" fill-opacity="1"><g transform="translate(98.800767, 57.100615)"><g><path d="M 0.382812 0 L 1.421875 0 L 1.816406 -1.011719 L 3.699219 -1.011719 L 4.09375 0 L 5.132812 0 L 3.210938 -4.570312 L 2.304688 -4.570312 Z M 2.183594 -1.945312 L 2.757812 -3.410156 L 3.332031 -1.945312 Z M 2.183594 -1.945312 "/></g></g></g><g fill="#000000" fill-opacity="1"><g transform="translate(105.382215, 57.100615)"><g><path d="M 0.382812 0 L 3.847656 0 L 3.847656 -0.894531 L 1.355469 -0.894531 L 1.355469 -4.570312 L 0.382812 -4.570312 Z M 0.382812 0 "/></g></g></g><g fill="#000000" fill-opacity="1"><g transform="translate(110.678354, 57.100615)"><g/></g></g><g fill="#000000" fill-opacity="1"><g transform="translate(113.666054, 57.100615)"><g><path d="M 0.382812 0 L 1.421875 0 L 1.816406 -1.011719 L 3.699219 -1.011719 L 4.09375 0 L 5.132812 0 L 3.210938 -4.570312 L 2.304688 -4.570312 Z M 2.183594 -1.945312 L 2.757812 -3.410156 L 3.332031 -1.945312 Z M 2.183594 -1.945312 "/></g></g></g><g fill="#000000" fill-opacity="1"><g transform="translate(120.247502, 57.100615)"><g><path d="M 2.746094 0.078125 C 4.164062 0.078125 5.082031 -0.964844 5.082031 -2.4375 L 2.746094 -2.445312 L 2.746094 -1.601562 L 3.953125 -1.601562 C 3.769531 -1.164062 3.257812 -0.910156 2.746094 -0.910156 C 1.976562 -0.910156 1.363281 -1.515625 1.363281 -2.289062 C 1.363281 -3.058594 1.976562 -3.671875 2.746094 -3.671875 C 3.257812 -3.671875 3.691406 -3.410156 3.929688 -3 C 4.378906 -3.226562 4.410156 -3.246094 4.8125 -3.449219 C 4.402344 -4.160156 3.628906 -4.652344 2.746094 -4.652344 C 1.445312 -4.652344 0.382812 -3.589844 0.382812 -2.289062 C 0.382812 -0.984375 1.445312 0.078125 2.746094 0.078125 Z M 2.746094 0.078125 "/></g></g></g><g fill="#000000" fill-opacity="1"><g transform="translate(126.77779, 57.100615)"><g><path d="M 0.382812 0 L 3.71875 0 L 3.71875 -0.894531 L 1.355469 -0.894531 L 1.355469 -1.84375 L 3.441406 -1.84375 L 3.441406 -2.738281 L 1.355469 -2.738281 L 1.355469 -3.671875 L 3.71875 -3.671875 L 3.71875 -4.570312 L 0.382812 -4.570312 Z M 0.382812 0 "/></g></g></g><g fill="#000000" fill-opacity="1"><g transform="translate(131.946039, 57.100615)"><g><path d="M 0.382812 0 L 1.292969 0 L 1.292969 -3.417969 L 3.671875 0 L 4.644531 0 L 4.644531 -4.570312 L 3.738281 -4.570312 L 3.738281 -1.476562 L 1.632812 -4.570312 L 0.382812 -4.570312 Z M 0.382812 0 "/></g></g></g><g fill="#000000" fill-opacity="1"><g transform="translate(138.041498, 57.100615)"><g><path d="M 2.75 0.078125 C 3.671875 0.078125 4.449219 -0.433594 4.84375 -1.183594 C 4.429688 -1.375 4.414062 -1.402344 3.96875 -1.632812 C 3.730469 -1.183594 3.277344 -0.902344 2.75 -0.902344 C 1.984375 -0.902344 1.363281 -1.523438 1.363281 -2.289062 C 1.363281 -3.050781 1.984375 -3.679688 2.75 -3.679688 C 3.257812 -3.679688 3.699219 -3.40625 3.929688 -3 C 4.378906 -3.21875 4.410156 -3.238281 4.804688 -3.449219 C 4.410156 -4.160156 3.648438 -4.660156 2.75 -4.660156 C 1.445312 -4.660156 0.382812 -3.582031 0.382812 -2.289062 C 0.382812 -0.984375 1.445312 0.078125 2.75 0.078125 Z M 2.75 0.078125 "/></g></g></g><g fill="#000000" fill-opacity="1"><g transform="translate(144.335196, 57.100615)"><g><path d="M 2.066406 0 L 3.070312 0 L 3.070312 -1.753906 L 4.765625 -4.570312 L 3.648438 -4.570312 L 2.585938 -2.765625 L 1.515625 -4.570312 L 0.382812 -4.570312 L 2.066406 -1.777344 Z M 2.066406 0 "/></g></g></g></svg>