<svg xmlns="http://www.w3.org/2000/svg" xmlns:xlink="http://www.w3.org/1999/xlink" width="300" zoomAndPan="magnify" viewBox="0 0 224.87999 74.999997" height="100" preserveAspectRatio="xMidYMid meet" version="1.0"><defs><g/></defs><g fill="#efefef" fill-opacity="1"><g transform="translate(13.905238, 47.61062)"><g><path d="M 10.921875 -21.515625 C 11.785156 -22.628906 12.914062 -23.460938 14.3125 -24.015625 C 15.71875 -24.578125 17.320312 -24.859375 19.125 -24.859375 L 19.125 -17.140625 C 18.34375 -17.234375 17.695312 -17.28125 17.1875 -17.28125 C 15.351562 -17.28125 13.914062 -16.78125 12.875 -15.78125 C 11.84375 -14.789062 11.328125 -13.273438 11.328125 -11.234375 L 11.328125 0 L 2.75 0 L 2.75 -24.453125 L 10.921875 -24.453125 Z M 10.921875 -21.515625 "/></g></g></g><g fill="#efefef" fill-opacity="1"><g transform="translate(32.663631, 47.61062)"><g><path d="M 15.015625 0.40625 C 12.398438 0.40625 10.039062 -0.132812 7.9375 -1.21875 C 5.832031 -2.300781 4.1875 -3.800781 3 -5.71875 C 1.8125 -7.644531 1.21875 -9.828125 1.21875 -12.265625 C 1.21875 -14.671875 1.8125 -16.835938 3 -18.765625 C 4.1875 -20.691406 5.820312 -22.1875 7.90625 -23.25 C 10 -24.320312 12.367188 -24.859375 15.015625 -24.859375 C 17.660156 -24.859375 20.035156 -24.320312 22.140625 -23.25 C 24.253906 -22.1875 25.894531 -20.695312 27.0625 -18.78125 C 28.238281 -16.875 28.828125 -14.703125 28.828125 -12.265625 C 28.828125 -9.828125 28.238281 -7.644531 27.0625 -5.71875 C 25.894531 -3.800781 24.253906 -2.300781 22.140625 -1.21875 C 20.035156 -0.132812 17.660156 0.40625 15.015625 0.40625 Z M 15.015625 -6.40625 C 16.523438 -6.40625 17.757812 -6.921875 18.71875 -7.953125 C 19.675781 -8.992188 20.15625 -10.429688 20.15625 -12.265625 C 20.15625 -14.066406 19.675781 -15.476562 18.71875 -16.5 C 17.757812 -17.53125 16.523438 -18.046875 15.015625 -18.046875 C 13.515625 -18.046875 12.28125 -17.53125 11.3125 -16.5 C 10.351562 -15.476562 9.875 -14.066406 9.875 -12.265625 C 9.875 -10.429688 10.351562 -8.992188 11.3125 -7.953125 C 12.28125 -6.921875 13.515625 -6.40625 15.015625 -6.40625 Z M 15.015625 -6.40625 "/></g></g></g><g fill="#efefef" fill-opacity="1"><g transform="translate(61.477811, 47.61062)"><g><path d="M 15.25 0.40625 C 12.539062 0.40625 10.117188 -0.132812 7.984375 -1.21875 C 5.847656 -2.300781 4.1875 -3.800781 3 -5.71875 C 1.8125 -7.644531 1.21875 -9.828125 1.21875 -12.265625 C 1.21875 -14.703125 1.8125 -16.875 3 -18.78125 C 4.1875 -20.695312 5.847656 -22.1875 7.984375 -23.25 C 10.117188 -24.320312 12.539062 -24.859375 15.25 -24.859375 C 18.007812 -24.859375 20.394531 -24.265625 22.40625 -23.078125 C 24.425781 -21.890625 25.859375 -20.242188 26.703125 -18.140625 L 20.078125 -14.75 C 18.960938 -16.945312 17.335938 -18.046875 15.203125 -18.046875 C 13.671875 -18.046875 12.398438 -17.53125 11.390625 -16.5 C 10.378906 -15.476562 9.875 -14.066406 9.875 -12.265625 C 9.875 -10.429688 10.378906 -8.992188 11.390625 -7.953125 C 12.398438 -6.921875 13.671875 -6.40625 15.203125 -6.40625 C 17.335938 -6.40625 18.960938 -7.503906 20.078125 -9.703125 L 26.703125 -6.3125 C 25.859375 -4.207031 24.425781 -2.5625 22.40625 -1.375 C 20.394531 -0.1875 18.007812 0.40625 15.25 0.40625 Z M 15.25 0.40625 "/></g></g></g><g fill="#efefef" fill-opacity="1"><g transform="translate(87.451119, 47.61062)"><g><path d="M 13.84375 -8.578125 L 11.328125 -6 L 11.328125 0 L 2.75 0 L 2.75 -33.46875 L 11.328125 -33.46875 L 11.328125 -15.921875 L 20.078125 -24.453125 L 30.21875 -24.453125 L 20.078125 -13.984375 L 31.078125 0 L 20.703125 0 Z M 13.84375 -8.578125 "/></g></g></g><g fill="#efefef" fill-opacity="1"><g transform="translate(117.167158, 47.61062)"><g><path d="M 27.75 -12.171875 C 27.75 -12.117188 27.703125 -11.414062 27.609375 -10.0625 L 9.828125 -10.0625 C 10.191406 -8.800781 10.890625 -7.832031 11.921875 -7.15625 C 12.960938 -6.476562 14.265625 -6.140625 15.828125 -6.140625 C 17.003906 -6.140625 18.019531 -6.300781 18.875 -6.625 C 19.726562 -6.957031 20.59375 -7.5 21.46875 -8.25 L 25.984375 -3.5625 C 23.609375 -0.914062 20.132812 0.40625 15.5625 0.40625 C 12.707031 0.40625 10.195312 -0.132812 8.03125 -1.21875 C 5.863281 -2.300781 4.1875 -3.800781 3 -5.71875 C 1.8125 -7.644531 1.21875 -9.828125 1.21875 -12.265625 C 1.21875 -14.671875 1.796875 -16.828125 2.953125 -18.734375 C 4.109375 -20.648438 5.707031 -22.148438 7.75 -23.234375 C 9.800781 -24.316406 12.101562 -24.859375 14.65625 -24.859375 C 17.09375 -24.859375 19.300781 -24.351562 21.28125 -23.34375 C 23.269531 -22.332031 24.84375 -20.875 26 -18.96875 C 27.164062 -17.0625 27.75 -14.796875 27.75 -12.171875 Z M 14.703125 -18.765625 C 13.378906 -18.765625 12.273438 -18.390625 11.390625 -17.640625 C 10.503906 -16.890625 9.941406 -15.863281 9.703125 -14.5625 L 19.71875 -14.5625 C 19.476562 -15.863281 18.910156 -16.890625 18.015625 -17.640625 C 17.128906 -18.390625 16.023438 -18.765625 14.703125 -18.765625 Z M 14.703125 -18.765625 "/></g></g></g><g fill="#efefef" fill-opacity="1"><g transform="translate(144.899096, 47.61062)"><g><path d="M 19.625 -1 C 18.90625 -0.539062 18.023438 -0.191406 16.984375 0.046875 C 15.941406 0.285156 14.835938 0.40625 13.671875 0.40625 C 10.484375 0.40625 8.03125 -0.375 6.3125 -1.9375 C 4.601562 -3.5 3.75 -5.832031 3.75 -8.9375 L 3.75 -17.140625 L 0.1875 -17.140625 L 0.1875 -23.546875 L 3.75 -23.546875 L 3.75 -29.90625 L 12.3125 -29.90625 L 12.3125 -23.546875 L 17.90625 -23.546875 L 17.90625 -17.140625 L 12.3125 -17.140625 L 12.3125 -9.015625 C 12.3125 -8.148438 12.546875 -7.46875 13.015625 -6.96875 C 13.484375 -6.46875 14.109375 -6.21875 14.890625 -6.21875 C 15.878906 -6.21875 16.75 -6.472656 17.5 -6.984375 Z M 19.625 -1 "/></g></g></g><g fill="#efefef" fill-opacity="1"><g transform="translate(163.837863, 47.61062)"><g><path d="M 34.59375 -24.859375 C 37.601562 -24.859375 40.003906 -23.953125 41.796875 -22.140625 C 43.585938 -20.335938 44.484375 -17.617188 44.484375 -13.984375 L 44.484375 0 L 35.90625 0 L 35.90625 -12.578125 C 35.90625 -14.296875 35.582031 -15.5625 34.9375 -16.375 C 34.289062 -17.1875 33.378906 -17.59375 32.203125 -17.59375 C 30.910156 -17.59375 29.875 -17.140625 29.09375 -16.234375 C 28.3125 -15.335938 27.921875 -13.972656 27.921875 -12.140625 L 27.921875 0 L 19.359375 0 L 19.359375 -12.578125 C 19.359375 -15.921875 18.125 -17.59375 15.65625 -17.59375 C 14.332031 -17.59375 13.28125 -17.140625 12.5 -16.234375 C 11.71875 -15.335938 11.328125 -13.972656 11.328125 -12.140625 L 11.328125 0 L 2.75 0 L 2.75 -24.453125 L 10.921875 -24.453125 L 10.921875 -21.875 C 11.816406 -22.863281 12.890625 -23.609375 14.140625 -24.109375 C 15.390625 -24.609375 16.75 -24.859375 18.21875 -24.859375 C 19.9375 -24.859375 21.472656 -24.539062 22.828125 -23.90625 C 24.179688 -23.269531 25.28125 -22.304688 26.125 -21.015625 C 27.082031 -22.253906 28.296875 -23.203125 29.765625 -23.859375 C 31.242188 -24.523438 32.851562 -24.859375 34.59375 -24.859375 Z M 34.59375 -24.859375 "/></g></g></g><g fill="#efefef" fill-opacity="1"><g transform="translate(62.545735, 61.423288)"><g><path d="M 0.515625 0 L 3.128906 0 C 5.003906 0 5.917969 -1.328125 5.917969 -3.109375 C 5.917969 -5.144531 4.722656 -6.152344 3.128906 -6.152344 L 0.515625 -6.152344 Z M 1.828125 -1.136719 L 1.828125 -5.015625 L 2.792969 -5.015625 C 4.128906 -5.015625 4.566406 -4.222656 4.566406 -2.980469 C 4.566406 -1.621094 3.816406 -1.136719 3.03125 -1.136719 Z M 1.828125 -1.136719 "/></g></g></g><g fill="#efefef" fill-opacity="1"><g transform="translate(70.417015, 61.423288)"><g><path d="M 0.515625 0 L 1.828125 0 L 1.828125 -6.152344 L 0.515625 -6.152344 Z M 0.515625 0 "/></g></g></g><g fill="#efefef" fill-opacity="1"><g transform="translate(74.198644, 61.423288)"><g><path d="M 3.695312 0.101562 C 5.609375 0.101562 6.839844 -1.300781 6.839844 -3.28125 L 3.695312 -3.292969 L 3.695312 -2.152344 L 5.324219 -2.152344 C 5.074219 -1.566406 4.386719 -1.222656 3.695312 -1.222656 C 2.664062 -1.222656 1.835938 -2.042969 1.835938 -3.085938 C 1.835938 -4.117188 2.664062 -4.945312 3.695312 -4.945312 C 4.386719 -4.945312 4.972656 -4.59375 5.289062 -4.039062 C 5.894531 -4.34375 5.9375 -4.367188 6.480469 -4.644531 C 5.925781 -5.601562 4.886719 -6.265625 3.695312 -6.265625 C 1.945312 -6.265625 0.515625 -4.832031 0.515625 -3.085938 C 0.515625 -1.328125 1.945312 0.101562 3.695312 0.101562 Z M 3.695312 0.101562 "/></g></g></g><g fill="#efefef" fill-opacity="1"><g transform="translate(82.99117, 61.423288)"><g><path d="M 0.515625 0 L 1.828125 0 L 1.828125 -6.152344 L 0.515625 -6.152344 Z M 0.515625 0 "/></g></g></g><g fill="#efefef" fill-opacity="1"><g transform="translate(86.772799, 61.423288)"><g><path d="M 2.285156 0 L 3.59375 0 L 3.59375 -4.945312 L 5.351562 -4.945312 L 5.351562 -6.152344 L 0.515625 -6.152344 L 0.515625 -4.945312 L 2.285156 -4.945312 Z M 2.285156 0 "/></g></g></g><g fill="#efefef" fill-opacity="1"><g transform="translate(94.075833, 61.423288)"><g><path d="M 0.515625 0 L 1.914062 0 L 2.445312 -1.359375 L 4.980469 -1.359375 L 5.515625 0 L 6.910156 0 L 4.324219 -6.152344 L 3.101562 -6.152344 Z M 2.9375 -2.621094 L 3.714844 -4.59375 L 4.488281 -2.621094 Z M 2.9375 -2.621094 "/></g></g></g><g fill="#efefef" fill-opacity="1"><g transform="translate(102.937243, 61.423288)"><g><path d="M 0.515625 0 L 5.179688 0 L 5.179688 -1.207031 L 1.828125 -1.207031 L 1.828125 -6.152344 L 0.515625 -6.152344 Z M 0.515625 0 "/></g></g></g><g fill="#efefef" fill-opacity="1"><g transform="translate(110.068084, 61.423288)"><g/></g></g><g fill="#efefef" fill-opacity="1"><g transform="translate(114.090789, 61.423288)"><g><path d="M 0.515625 0 L 1.914062 0 L 2.445312 -1.359375 L 4.980469 -1.359375 L 5.515625 0 L 6.910156 0 L 4.324219 -6.152344 L 3.101562 -6.152344 Z M 2.9375 -2.621094 L 3.714844 -4.59375 L 4.488281 -2.621094 Z M 2.9375 -2.621094 "/></g></g></g><g fill="#efefef" fill-opacity="1"><g transform="translate(122.952199, 61.423288)"><g><path d="M 3.695312 0.101562 C 5.609375 0.101562 6.839844 -1.300781 6.839844 -3.28125 L 3.695312 -3.292969 L 3.695312 -2.152344 L 5.324219 -2.152344 C 5.074219 -1.566406 4.386719 -1.222656 3.695312 -1.222656 C 2.664062 -1.222656 1.835938 -2.042969 1.835938 -3.085938 C 1.835938 -4.117188 2.664062 -4.945312 3.695312 -4.945312 C 4.386719 -4.945312 4.972656 -4.59375 5.289062 -4.039062 C 5.894531 -4.34375 5.9375 -4.367188 6.480469 -4.644531 C 5.925781 -5.601562 4.886719 -6.265625 3.695312 -6.265625 C 1.945312 -6.265625 0.515625 -4.832031 0.515625 -3.085938 C 0.515625 -1.328125 1.945312 0.101562 3.695312 0.101562 Z M 3.695312 0.101562 "/></g></g></g><g fill="#efefef" fill-opacity="1"><g transform="translate(131.744725, 61.423288)"><g><path d="M 0.515625 0 L 5.003906 0 L 5.003906 -1.207031 L 1.828125 -1.207031 L 1.828125 -2.480469 L 4.636719 -2.480469 L 4.636719 -3.6875 L 1.828125 -3.6875 L 1.828125 -4.945312 L 5.003906 -4.945312 L 5.003906 -6.152344 L 0.515625 -6.152344 Z M 0.515625 0 "/></g></g></g><g fill="#efefef" fill-opacity="1"><g transform="translate(138.703372, 61.423288)"><g><path d="M 0.515625 0 L 1.742188 0 L 1.742188 -4.601562 L 4.945312 0 L 6.253906 0 L 6.253906 -6.152344 L 5.03125 -6.152344 L 5.03125 -1.992188 L 2.195312 -6.152344 L 0.515625 -6.152344 Z M 0.515625 0 "/></g></g></g><g fill="#efefef" fill-opacity="1"><g transform="translate(146.910435, 61.423288)"><g><path d="M 3.703125 0.101562 C 4.945312 0.101562 5.988281 -0.585938 6.523438 -1.59375 C 5.960938 -1.851562 5.945312 -1.886719 5.34375 -2.195312 C 5.023438 -1.59375 4.410156 -1.214844 3.703125 -1.214844 C 2.671875 -1.214844 1.835938 -2.050781 1.835938 -3.085938 C 1.835938 -4.109375 2.671875 -4.953125 3.703125 -4.953125 C 4.386719 -4.953125 4.980469 -4.582031 5.289062 -4.039062 C 5.894531 -4.332031 5.9375 -4.359375 6.46875 -4.644531 C 5.9375 -5.601562 4.910156 -6.273438 3.703125 -6.273438 C 1.945312 -6.273438 0.515625 -4.824219 0.515625 -3.085938 C 0.515625 -1.328125 1.945312 0.101562 3.703125 0.101562 Z M 3.703125 0.101562 "/></g></g></g><g fill="#efefef" fill-opacity="1"><g transform="translate(155.384411, 61.423288)"><g><path d="M 2.78125 0 L 4.136719 0 L 4.136719 -2.359375 L 6.417969 -6.152344 L 4.910156 -6.152344 L 3.480469 -3.722656 L 2.042969 -6.152344 L 0.515625 -6.152344 L 2.78125 -2.394531 Z M 2.78125 0 "/></g></g></g></svg>