<svg version="1.2" xmlns="http://www.w3.org/2000/svg" viewBox="0 0 226 45" width="226" height="45">
	<title>33bqlo-svg</title>
	<style>
		.s0 { fill: #efefef } 
	</style>
	<g id="Layer">
		<g id="Layer">
			<g id="Layer">
				<path id="Layer" class="s0" d="m25.8 17.1q1.3-1.7 3.4-2.5 2.1-0.8 4.8-0.8v7.7q-1.1-0.2-1.9-0.2-2.8 0-4.3 1.5-1.6 1.5-1.6 4.6v11.2h-8.5v-24.4h8.1z"/>
			</g>
		</g>
	</g>
	<g id="Layer">
		<g id="Layer">
			<g id="Layer">
				<path id="Layer" fill-rule="evenodd" class="s0" d="m48.7 39q-3.9 0-7.1-1.6-3.2-1.6-4.9-4.5-1.8-2.9-1.8-6.6 0-3.6 1.8-6.5 1.7-2.8 4.9-4.4 3.1-1.6 7.1-1.6 3.9 0 7.1 1.6 3.2 1.6 4.9 4.4 1.8 2.9 1.8 6.5 0 3.7-1.8 6.6-1.7 2.9-4.9 4.5-3.2 1.6-7.1 1.6zm0-6.8q2.2 0 3.7-1.5 1.4-1.6 1.4-4.4 0-2.7-1.4-4.2-1.5-1.5-3.7-1.5-2.3 0-3.7 1.5-1.5 1.5-1.5 4.2 0 2.8 1.5 4.4 1.4 1.5 3.7 1.5z"/>
			</g>
		</g>
	</g>
	<g id="Layer">
		<g id="Layer">
			<g id="Layer">
				<path id="Layer" class="s0" d="m77.7 39q-4 0-7.2-1.6-3.2-1.6-5-4.5-1.8-2.9-1.8-6.6 0-3.6 1.8-6.5 1.8-2.8 5-4.4 3.2-1.6 7.2-1.6 4.2 0 7.2 1.7 3 1.8 4.3 5l-6.6 3.4q-1.7-3.3-4.9-3.3-2.3 0-3.8 1.5-1.5 1.5-1.5 4.2 0 2.8 1.5 4.4 1.5 1.5 3.8 1.5 3.2 0 4.9-3.3l6.6 3.4q-1.3 3.2-4.3 4.9-3 1.8-7.2 1.8z"/>
			</g>
		</g>
	</g>
	<g id="Layer">
		<g id="Layer">
			<g id="Layer">
				<path id="Layer" class="s0" d="m102.3 30l-2.5 2.6v6h-8.6v-33.5h8.6v17.6l8.7-8.5h10.2l-10.2 10.4 11 14h-10.3z"/>
			</g>
		</g>
	</g>
	<g id="Layer">
		<g id="Layer">
			<g id="Layer">
				<path id="Layer" fill-rule="evenodd" class="s0" d="m145.9 26.4q0 0.1-0.1 2.1h-17.8q0.5 1.9 2.1 3 1.5 1 3.9 1 1.8 0 3-0.5 1.3-0.5 2.6-1.6l4.6 4.6q-3.6 4-10.5 4-4.3 0-7.5-1.6-3.3-1.6-5-4.5-1.8-2.9-1.8-6.6 0-3.6 1.7-6.4 1.8-2.9 4.8-4.5 3.1-1.6 6.9-1.6 3.7 0 6.6 1.5 3 1.5 4.8 4.3 1.7 2.9 1.7 6.8zm-13-6.6q-2 0-3.3 1.2-1.4 1.1-1.7 3h10q-0.4-1.9-1.7-3-1.3-1.2-3.3-1.2z"/>
			</g>
		</g>
	</g>
	<g id="Layer">
		<g id="Layer">
			<g id="Layer">
				<path id="Layer" class="s0" d="m165.5 37.6q-1.1 0.7-2.6 1.1-1.6 0.3-3.3 0.3-4.8 0-7.4-2.3-2.6-2.4-2.6-7v-8.2h-3.5v-6.4h3.5v-6.4h8.6v6.4h5.6v6.4h-5.6v8.1q0 1.3 0.7 2 0.7 0.8 1.9 0.8 1.5 0 2.6-0.8z"/>
			</g>
		</g>
	</g>
	<g id="Layer">
		<g id="Layer">
			<g id="Layer">
				<path id="Layer" class="s0" d="m199.4 13.8q4.5 0 7.2 2.7 2.7 2.7 2.7 8.1v14h-8.6v-12.6q0-2.5-0.9-3.8-1-1.2-2.8-1.2-1.9 0-3.1 1.4-1.1 1.3-1.1 4.1v12.1h-8.6v-12.6q0-5-3.7-5-2 0-3.2 1.4-1.1 1.3-1.1 4.1v12.1h-8.6v-24.4h8.2v2.5q1.3-1.4 3.2-2.2 1.9-0.7 4.1-0.7 2.5 0 4.6 0.9 2 1 3.3 2.9 1.4-1.9 3.6-2.8 2.2-1 4.8-1z"/>
			</g>
		</g>
	</g>
	<g id="Layer">
		<g id="Layer">
			<g id="Layer">
				<path id="Layer" fill-rule="evenodd" class="s0" d="m64.1 46.3h2.6c1.6 0 2.8 1 2.8 3 0 1.8-1 3.1-2.8 3.1h-2.6zm2.5 5c0.8 0 1.5-0.4 1.5-1.8 0-1.2-0.4-2-1.8-2h-0.9v3.8z"/>
			</g>
		</g>
	</g>
	<g id="Layer">
		<g id="Layer">
			<g id="Layer">
				<path id="Layer" class="s0" d="m71.9 52.4h1.3v-6.1h-1.3z"/>
			</g>
		</g>
	</g>
	<g id="Layer">
		<g id="Layer">
			<g id="Layer">
				<path id="Layer" class="s0" d="m78.9 52.5c1.9 0 3.1-1.4 3.1-3.4h-3.1v1.2h1.6c-0.2 0.6-0.9 0.9-1.6 0.9-1 0-1.9-0.8-1.9-1.9 0-1 0.9-1.8 1.9-1.8 0.7 0 1.3 0.3 1.6 0.9 0.6-0.3 0.6-0.3 1.2-0.6-0.6-1-1.6-1.6-2.8-1.6-1.8 0-3.2 1.4-3.2 3.1 0 1.8 1.4 3.2 3.2 3.2z"/>
			</g>
		</g>
	</g>
	<g id="Layer">
		<g id="Layer">
			<g id="Layer">
				<path id="Layer" class="s0" d="m84.5 52.4h1.3v-6.1h-1.3z"/>
			</g>
		</g>
	</g>
	<g id="Layer">
		<g id="Layer">
			<g id="Layer">
				<path id="Layer" class="s0" d="m90.1 52.4h1.3v-4.9h1.7v-1.2h-4.8v1.2h1.8z"/>
			</g>
		</g>
	</g>
	<g id="Layer">
		<g id="Layer">
			<g id="Layer">
				<path id="Layer" fill-rule="evenodd" class="s0" d="m98.2 46.3h1.2l2.6 6.1h-1.4l-0.5-1.3h-2.6l-0.5 1.3h-1.4zm1.4 3.6l-0.8-2-0.8 2z"/>
			</g>
		</g>
	</g>
	<g id="Layer">
		<g id="Layer">
			<g id="Layer">
				<path id="Layer" class="s0" d="m104.5 52.4h4.6v-1.2h-3.3v-4.9h-1.3z"/>
			</g>
		</g>
	</g>
	<g id="Layer">
		<g id="Layer">
			<g id="Layer">
			</g>
		</g>
	</g>
	<g id="Layer">
		<g id="Layer">
			<g id="Layer">
				<path id="Layer" fill-rule="evenodd" class="s0" d="m118.2 46.3h1.2l2.6 6.1h-1.4l-0.5-1.3h-2.6l-0.5 1.3h-1.4zm1.4 3.6l-0.8-2-0.8 2z"/>
			</g>
		</g>
	</g>
	<g id="Layer">
		<g id="Layer">
			<g id="Layer">
				<path id="Layer" class="s0" d="m127.6 52.5c2 0 3.2-1.4 3.2-3.4h-3.2v1.2h1.7c-0.3 0.6-1 0.9-1.7 0.9-1 0-1.8-0.8-1.8-1.9 0-1 0.8-1.8 1.8-1.8 0.7 0 1.3 0.3 1.6 0.9 0.6-0.3 0.7-0.3 1.2-0.6-0.5-1-1.6-1.6-2.8-1.6-1.7 0-3.1 1.4-3.1 3.1 0 1.8 1.4 3.2 3.1 3.2z"/>
			</g>
		</g>
	</g>
	<g id="Layer">
		<g id="Layer">
			<g id="Layer">
				<path id="Layer" class="s0" d="m133.3 52.4h4.4v-1.2h-3.1v-1.3h2.8v-1.2h-2.8v-1.2h3.1v-1.2h-4.4z"/>
			</g>
		</g>
	</g>
	<g id="Layer">
		<g id="Layer">
			<g id="Layer">
				<path id="Layer" class="s0" d="m140.2 52.4h1.2v-4.6l3.2 4.6h1.4v-6.1h-1.3v4.1l-2.8-4.1h-1.7z"/>
			</g>
		</g>
	</g>
	<g id="Layer">
		<g id="Layer">
			<g id="Layer">
				<path id="Layer" class="s0" d="m151.6 52.5c1.3 0 2.3-0.7 2.8-1.7-0.5-0.2-0.5-0.3-1.1-0.6-0.4 0.6-1 1-1.7 1-1 0-1.9-0.8-1.9-1.9 0-1 0.9-1.8 1.9-1.8 0.7 0 1.3 0.3 1.6 0.9 0.6-0.3 0.6-0.3 1.2-0.6-0.6-1-1.6-1.7-2.8-1.7-1.7 0-3.2 1.5-3.2 3.2 0 1.8 1.5 3.2 3.2 3.2z"/>
			</g>
		</g>
	</g>
	<g id="Layer">
		<g id="Layer">
			<g id="Layer">
				<path id="Layer" class="s0" d="m159.2 52.4h1.3v-2.3l2.3-3.8h-1.5l-1.4 2.4-1.5-2.4h-1.5l2.3 3.7z"/>
			</g>
		</g>
	</g>
</svg>